<svg id="Layer_1" data-name="Layer 1" xmlns="http://www.w3.org/2000/svg" viewBox="0 0 63.93 52.837">
  <defs>
    <style>
      .cls-1, .cls-2 {
        fill: #fff;
      }

      .cls-1 {
        fill-rule: evenodd;
      }
    </style>
  </defs>
  <title>JPPL</title>
  <g>
    <path class="cls-1" d="M83.214,12.111a23.294,23.294,0,0,0,3.008,9.495,23.721,23.721,0,0,0-2.96,4.465l-0.988-2.163,0.8-1.268L83.5,23.345l1.128-1.974a50.749,50.749,0,0,1-2.257-5.781A29,29,0,0,0,83.214,12.111Z" transform="translate(-51.672 -3.178)"/>
    <path class="cls-1" d="M82.038,16.388l1.317,3.431-0.988,1.363,0.424,0.8-0.8,1.269L81.9,23.016V20.337l0.423-.752L81.9,18.6V16.67C81.944,16.576,81.992,16.482,82.038,16.388ZM81.9,23.016l-1.88-3.573A17.88,17.88,0,0,0,81.9,16.67v1.975l-0.47.752L81.9,20.29v2.726Z" transform="translate(-51.672 -3.178)"/>
    <path class="cls-1" d="M83.167,33.546a10.109,10.109,0,0,0,8.461-4.419c-3.056.189-6.017-.422-8.32-3.008a0.244,0.244,0,0,1-.141.094v1.458l0.095-.095A9.547,9.547,0,0,0,89.277,30.3a10.01,10.01,0,0,1-6.11,2.115v1.128Zm-8.744-5.03a10.755,10.755,0,0,0,8.744,5.03V32.417a8.705,8.705,0,0,1-6.111-2.444,11.063,11.063,0,0,0,6.111-2.3V26.212A10.206,10.206,0,0,1,74.423,28.515Z" transform="translate(-51.672 -3.178)"/>
    <path class="cls-1" d="M83.5,37.494l0.234,0.142,11.047-7.052V4.683L83.5,10.794v1.317l10.2-5.5V29.784l-10.013,6.3L83.5,35.943v1.551ZM72.214,4.777V31.1L83.5,37.494V35.943l-10.2-5.689V6.7l9.919,5.547,0.282-.14V10.794l-0.329.189Z" transform="translate(-51.672 -3.178)"/>
    <path class="cls-1" d="M112.5,47.319c0.376-.753.846-1.739,1.176-2.257,0.751-.423,1.269-0.611,1.927.235a53.713,53.713,0,0,1-.377,5.358,2.3,2.3,0,0,1-1.362,2.162c-0.282,0-.847,0-1.363.048V52.208a1.077,1.077,0,0,0,.657-0.8c0.095-1.128.142-2.3,0.235-3.244V47.083a9.572,9.572,0,0,0-.846,1.739,0.164,0.164,0,0,0-.047.095v-1.6Zm-1.175,8.7H110.1a2.8,2.8,0,0,1-1.223-.236,2.058,2.058,0,0,1,.235-0.705c0.8-7.662.8-7.662,0.94-9.73a1.986,1.986,0,0,0-.517-0.329V44.827a10.188,10.188,0,0,1,2.491-.094,22.563,22.563,0,0,1-.048,3.525,6.274,6.274,0,0,0,.518-0.939v1.6a7.184,7.184,0,0,0-.893,3.337,0.666,0.666,0,0,1,.281.094,4.212,4.212,0,0,0,.611-0.14v0.658a1.756,1.756,0,0,0-.987.281,6.966,6.966,0,0,0-.235,2.3,4.152,4.152,0,0,1,.705.236,0.429,0.429,0,0,0-.046.234,2.381,2.381,0,0,0-.611.095h0ZM106.2,52.537V51.6c0.611-.61-0.046-2.022.94-2.49a3.254,3.254,0,0,1,1.128.093c0.518,0.847-.046,2.116-0.7,2.821a5.029,5.029,0,0,1-1.364.518h0Zm0-4.044c0.94-.14,2.022-0.281,2.492-1.174a3.783,3.783,0,0,0-.094-2.3,3.687,3.687,0,0,0-2.4-.517v0.8a1.622,1.622,0,0,1,.8.046,6.056,6.056,0,0,1-.329,2.352,3.326,3.326,0,0,1-.471.188v0.61Zm0-4v0.8c-0.845.234-.845,1.41-0.845,2.49a1.73,1.73,0,0,1,.423.189c0.141-.047.282-0.047,0.422-0.094v0.61c-0.328.048-.61,0.095-0.893,0.142a7.13,7.13,0,0,0-.234,3.2,0.811,0.811,0,0,1,.234.093A1.416,1.416,0,0,0,106.2,51.6v0.941l-1.269.14c-0.047-.093-0.047-0.093-1.081-0.234-0.987-.752-0.752-0.752-0.8-1.834,0.188-1.55.188-3.807,0.894-5.028A3.66,3.66,0,0,1,106.2,44.5h0ZM100,52.489V51.924c0.094-.093.189-0.187,0.282-0.282,0.141-1.41.047-3.289,1.88-2.491a2.793,2.793,0,0,1-.423,2.586,4.3,4.3,0,0,1-1.034.7c-0.235,0-.47.047-0.705,0.047h0Zm0-4.043c0.94-.141,1.975-0.187,2.538-1.175,0.424-2.773-.328-2.726-2.4-2.867a0.173,0.173,0,0,0-.142.047V45.2a1.363,1.363,0,0,1,.752,0c0,0.611.188,2.163-.47,2.68H100v0.563Zm0-4V45.2a2.037,2.037,0,0,0-.563.235c-0.095.47-.424,2.162-0.095,2.538,0.235-.047.423-0.047,0.658-0.094v0.563a3.769,3.769,0,0,0-.846.189,24.506,24.506,0,0,0-.282,3.2,0.848,0.848,0,0,0,1.128.093v0.564c-0.47.048-.94,0.048-1.41,0.095-1.692-.142-1.6-0.941-1.6-2.3,0.095-1.27.188-2.538,0.329-3.808,0.518-1.551,1.223-1.787,2.68-2.022h0Zm-6.581,5.594V48.493c0.611-1.41,1.223-3.055.94-3.571a1.637,1.637,0,0,0-.94-0.047V44.309a4.392,4.392,0,0,1,.94-0.093,5.361,5.361,0,0,0,.235-2.4,1.262,1.262,0,0,1-.471-0.283c0-.046.047-0.093,0.047-0.14,0.376-.048,1.975-0.377,2.492-0.048a0.92,0.92,0,0,0,.047.329c-0.282,3.291-.518,6.628-0.8,10.013a0.54,0.54,0,0,0,.424.329,0.507,0.507,0,0,0,.047.234,5.357,5.357,0,0,1-1.786.33,1.042,1.042,0,0,1-.7-1.081,14.268,14.268,0,0,0,.141-2.444A2.858,2.858,0,0,0,93.414,50.045Zm0-5.735v0.566a1.074,1.074,0,0,0-.658.8c-0.094,1.6-.234,3.148-0.329,4.748h0.095a21.244,21.244,0,0,0,.893-1.929v1.552a9.506,9.506,0,0,1-1.363,2.3c-0.893.329-1.457,0.142-1.739-.563,0.142-1.928.095-4.372,0.8-6.11a3.177,3.177,0,0,1,2.256-1.317l0.047-.047h0ZM78.935,50.374v-1.6a8.381,8.381,0,0,0,.941-3.057,1.177,1.177,0,0,0-.941-0.8V44.4a3.916,3.916,0,0,1,1.317.281,4.929,4.929,0,0,1,1.5-.046c0.423,1.409-.376,4.935-0.376,7.145a1.6,1.6,0,0,1,.234.658c-0.94.142-1.739,0.517-2.209-.471,0.048-.893.094-1.739,0.187-2.584a0.169,0.169,0,0,0-.14-0.048c-0.19.424-.377,0.753-0.519,1.034h0Zm8.6,2.3a1.218,1.218,0,0,1-.61-0.845c0.094-1.552.187-3.1,0.281-4.7-0.517.282-1.645,3.761-1.786,4.232v0.658L85.846,52.3c-0.517.518-1.974,0.188-2.538,0.236a2.313,2.313,0,0,0-.564-0.095,0.971,0.971,0,0,1,.518-0.61c0.186-2.116.375-4.184,0.563-6.3,0-.188-0.048-0.376-0.048-0.563a3.267,3.267,0,0,0-.47-0.188V44.592c0.518-.142,2.068-0.564,2.491,0-0.047,1.269-.094,2.537-0.141,3.853a0.164,0.164,0,0,0,.094.047,19.6,19.6,0,0,1,2.068-3.947c0.518-.095,1.316-0.471,1.645.563a38.291,38.291,0,0,0-.376,6.675s0.611,0.048.517,0.424A5.2,5.2,0,0,1,87.538,52.676Zm-8.6-8.272v0.517a0.91,0.91,0,0,0-.563.658c-0.142,1.269-.423,4.465-0.376,4.889H78.09c0.235-.518.564-1.081,0.846-1.692v1.6c-0.7,1.222-.751,1.363-1.175,1.974a2.31,2.31,0,0,1-1.128.329,1.061,1.061,0,0,1-.235-0.14V46.99c0.048-.236.094-0.471,0.142-0.705a3.067,3.067,0,0,1,1.833-1.834c0.188,0,.376-0.047.563-0.047h0Zm-2.538.7a0.959,0.959,0,0,0,.423-0.234,1.487,1.487,0,0,0-.281-0.142H76.4v0.376Zm0-.376v0.376a0.092,0.092,0,0,1-.094.047c-0.752,1.974-1.552,4-2.3,5.971H73.907a3.592,3.592,0,0,1-.706,1.315V46.9h0.047a32.868,32.868,0,0,0,.047,3.713l0.142-.14c0.657-1.692,1.316-3.432,1.975-5.125a0.414,0.414,0,0,1-.048-0.234c-0.187-.047-0.422-0.095-0.611-0.141V44.78a12.152,12.152,0,0,1,1.645-.047h0Zm0,2.257a34.529,34.529,0,0,0-.47,5.029,1.693,1.693,0,0,0,.47.518V46.99h0ZM73.2,46.9h0.047a4.059,4.059,0,0,1-.047-0.752V46.9h0Zm0-1.552a0.6,0.6,0,0,1,.047-0.281c0.188-.048.424-0.094,0.659-0.141V44.685c-0.095-.046-0.142-0.046-0.235-0.093H73.2v0.751Zm0-.751V45.58a11.892,11.892,0,0,0-.047,1.316H73.2v5.547l-0.141.142c-1.5,0-1.316.141-1.833-.894V48.963H71.18V44.546c0.659,0,1.364.047,2.021,0.047h0Zm0,1.551V45.58a11.892,11.892,0,0,0-.047,1.316H73.2V46.143h0ZM71.18,50a1.742,1.742,0,0,0,.048.518V48.963H71.18V50Zm0-5.452v4.418H71.134c0-.518-0.048-1.034-0.048-1.552a14.31,14.31,0,0,1,.048-1.456H71.086v-1.41H71.18Zm0,4.418H71.134c0,0.329.046,0.705,0.046,1.034V48.963h0Zm-0.094-2.022v0.47a14.31,14.31,0,0,1,.048-1.456H71.086v0.986Zm0-2.4v1.41H71.039C70.944,44.733,70.8,44.921,70,45.014a11.185,11.185,0,0,1-.234,2.4,4.194,4.194,0,0,1-2.444,1.034V47.788c0.141-.046.234-0.093,0.376-0.14a6.14,6.14,0,0,0,.375-2.351,0.974,0.974,0,0,0-.141-0.235c-0.329,0-.47.047-0.61,0.047V44.546a9.767,9.767,0,0,1,2.02.14c0.563-.093,1.129-0.093,1.739-0.14h0Zm0,1.41H71.039a7.656,7.656,0,0,0,.047.986V45.956h0Zm-3.76,6.674V51.879c0.563-.988-0.048-2.4,1.081-2.868a3,3,0,0,1,1.034.141,2.7,2.7,0,0,1-.893,3.01C68.125,52.347,67.748,52.489,67.326,52.629Zm0-8.084v0.563a3.63,3.63,0,0,0-.564.234,14.007,14.007,0,0,0-.188,2.539,0.918,0.918,0,0,1,.329.047l0.424-.142v0.658a4.975,4.975,0,0,0-.894.235,9.585,9.585,0,0,0-.235,3.338,1.29,1.29,0,0,0,1.034,0c0.047-.048.047-0.095,0.095-0.141v0.751a2.877,2.877,0,0,1-2.962-.61c-0.047-.187-0.095-0.329-0.141-0.47a44.717,44.717,0,0,1,.47-5.218,2.547,2.547,0,0,1,2.633-1.786h0Zm-5.971,8.038v-0.7a0.094,0.094,0,0,1,.095-0.047,12.4,12.4,0,0,1,.517-2.444,1.251,1.251,0,0,1,1.5-.095A2.9,2.9,0,0,1,63,51.784a6.588,6.588,0,0,1-1.646.8h0Zm0-4.278v-0.61l0.564-.142a8.791,8.791,0,0,0,.235-2.4,1,1,0,0,0-.8-0.142V44.4c0.753,0,2.3-.095,2.68.986a5.171,5.171,0,0,1-.329,2.163c-0.047.095-.141,0.142-0.187,0.234A15.708,15.708,0,0,1,61.355,48.305Zm0-3.9v0.61a1.625,1.625,0,0,0-.281.048c-0.564.376-.518,1.739-0.564,2.633a2.787,2.787,0,0,0,.329.093c0.141-.046.329-0.046,0.517-0.093v0.61a5.181,5.181,0,0,0-.893.188,11.5,11.5,0,0,0-.376,3.386,2.3,2.3,0,0,0,1.269,0v0.7a5.9,5.9,0,0,1-1.269.141,4.148,4.148,0,0,1-1.223-.424V46.048c0.423-1.127.987-1.363,2.4-1.645h0.094ZM58.864,41.96V41.348h0.611a1.607,1.607,0,0,0,.047.471C59.335,41.866,59.287,41.866,58.864,41.96Zm0-.611V41.96a3.386,3.386,0,0,0-.611.047c-0.281,2.868-.563,5.688-0.846,8.555a3.014,3.014,0,0,1-1.6,1.881c-0.187.095-.376,0.142-0.563,0.234a6.3,6.3,0,0,1-2.68-.187V52.347A1.854,1.854,0,0,1,52,51.832V49.715c0-.189-0.047-0.281-0.047-0.423V48.634a1.906,1.906,0,0,1,1.834-.189c0.329,0.565.047,2.352,0,3.15a0.531,0.531,0,0,0,.61.376A1.821,1.821,0,0,0,55.1,50.8c0.282-2.821.518-5.689,0.753-8.509,0-.094-0.048-0.235-0.048-0.329-0.281-.094-0.517-0.187-0.8-0.282V41.443a9.093,9.093,0,0,1,2.351-.095h1.5Zm0,4.7c-0.047.188-.141,0.424-0.187,0.659a36.739,36.739,0,0,0-.471,4.795,2.143,2.143,0,0,0,.658.8V46.048h0Zm-6.91,5.735a0.046,0.046,0,0,1,.047.048V49.715l-0.047.048v2.021Zm0-3.149v0.658a0.4,0.4,0,0,0-.282-0.329,2.1,2.1,0,0,1,.282-0.329h0Zm0,1.129v2.021H51.907V51.266c0-.469,0-0.939.047-1.41V49.763Z" transform="translate(-51.672 -3.178)"/>
    <path class="cls-2" d="M98.256,3.178a1.693,1.693,0,0,1,.94.283,2.047,2.047,0,0,1,.752.8,2.317,2.317,0,0,1,.235,1.128,2.073,2.073,0,0,1-.235,1.034,1.979,1.979,0,0,1-.7.8,1.657,1.657,0,0,1-.987.329h0V7.175h0a1.585,1.585,0,0,0,.8-0.235,1.632,1.632,0,0,0,.611-0.659A2.1,2.1,0,0,0,99.9,5.388a2.128,2.128,0,0,0-.235-0.939,1.648,1.648,0,0,0-.611-0.658,1.723,1.723,0,0,0-.8-0.236h0V3.178h0Zm0,2.539a1,1,0,0,1,.282.471l0.189,0.376h0.423l-0.235-.471c-0.141-.187-0.235-0.376-0.329-0.47A0.736,0.736,0,0,0,98.4,5.53a0.894,0.894,0,0,0,.47-0.236,0.655,0.655,0,0,0,.141-0.422,0.676,0.676,0,0,0-.094-0.329,0.363,0.363,0,0,0-.282-0.236,2.1,2.1,0,0,0-.376-0.095V4.543a1.1,1.1,0,0,1,.188.046c0.094,0.047.141,0.047,0.141,0.142a0.173,0.173,0,0,1,.047.141,0.267,0.267,0,0,1-.094.282,0.4,0.4,0,0,1-.282.093V5.717Zm0,1.834a1.657,1.657,0,0,1-.987-0.329,1.48,1.48,0,0,1-.705-0.8,2.149,2.149,0,0,1-.282-1.034,2.369,2.369,0,0,1,.282-1.128,1.936,1.936,0,0,1,.705-0.8,1.972,1.972,0,0,1,.987-0.283V3.555a1.576,1.576,0,0,0-.8.236,1.379,1.379,0,0,0-.611.658,2.141,2.141,0,0,0-.235.939,1.6,1.6,0,0,0,.235.893,1.9,1.9,0,0,0,.564.659,1.915,1.915,0,0,0,.846.235V7.551h0Zm0-3.338H97.363V6.564h0.376V5.577h0.188a0.3,0.3,0,0,1,.282.093l0.047,0.047V5.247H97.739v-0.7h0.517V4.212Z" transform="translate(-51.672 -3.178)"/>
  </g>
</svg>
