<svg id="Layer_1" data-name="Layer 1" xmlns="http://www.w3.org/2000/svg" viewBox="0 0 33.661 25.913">
  <defs>
    <style>
      .cls-1 {
        fill: #fff;
      }
    </style>
  </defs>
  <title>publication</title>
  <path class="cls-1" d="M37.459,12.288l-2.328.76V12.99l-0.1-.021a22.963,22.963,0,0,0-4.3-.4c-3.079,0-7.188.656-9.4,3.749a14.5,14.5,0,0,0-10.442-4.162,16.276,16.276,0,0,0-4.379.567l-0.088.027v0.047l-1.547-.5a0.383,0.383,0,0,0-.54.377V33.274a0.8,0.8,0,0,0,.542.715L17.922,37.9a4.558,4.558,0,0,0,1.111.165H23.3a4.582,4.582,0,0,0,1.114-.165l13.041-3.91A0.8,0.8,0,0,0,38,33.274V12.666A0.382,0.382,0,0,0,37.459,12.288ZM19.541,36.126a36.827,36.827,0,0,0-10.5-3.41l-0.036.241a36.441,36.441,0,0,1,10.281,3.32,2.316,2.316,0,0,0-.4.347A78.578,78.578,0,0,0,7.038,32.966L6.981,33.2a78.749,78.749,0,0,1,11.748,3.616,1.912,1.912,0,0,0-.154.253,0.052,0.052,0,0,0-.009.02l0,0L5.448,32.93,5.442,13.374,6.424,12.9V32.215l0.128,0h0.3c8.24,0,13.23,2.984,14.1,3.554A3.281,3.281,0,0,0,19.541,36.126Zm1.494-.6c-1.054-.671-6.056-3.556-14.183-3.556H6.676V12.925a16.475,16.475,0,0,1,4.215-.53,14.241,14.241,0,0,1,10.332,4.156Zm0.439-18.982c2.13-3.081,6.206-3.731,9.254-3.731a23.12,23.12,0,0,1,4.15.378V31.52H34.734c-8.014,0-12.425,3.141-13.437,3.959ZM36.956,32.93L23.489,37.1h0a3.243,3.243,0,0,0-.267-0.318A79.122,79.122,0,0,1,34.861,33.2L34.8,32.966a79,79,0,0,0-11.77,3.623,3.847,3.847,0,0,0-.419-0.345,36.411,36.411,0,0,1,10.22-3.288L32.8,32.715A36.732,36.732,0,0,0,22.37,36.091a2.376,2.376,0,0,0-1.029-.325c0.678-.58,5.132-4.077,13.662-4h0.128V13.108l1.825,0.271V32.93Z" transform="translate(-4.337 -12.151)"/>
  <path class="cls-1" d="M20.823,35.178c-1.022-.651-5.875-3.449-13.759-3.449H6.893V13.255a15.965,15.965,0,0,1,4.09-.514,13.817,13.817,0,0,1,10.023,4.032Z" transform="translate(-4.337 -12.151)"/>
  <path class="cls-1" d="M21.734,16.752c2.046-2.961,5.962-3.585,8.891-3.585a22.284,22.284,0,0,1,3.988.363V31.146H34.475c-7.7,0-11.939,3.018-12.912,3.8Z" transform="translate(-4.337 -12.151)"/>
</svg>
