<svg id="Layer_1" data-name="Layer 1" xmlns="http://www.w3.org/2000/svg" viewBox="0 0 154.548 32.062">
  <defs>
    <style>
      .cls-1, .cls-2 {
        fill: #fff;
        fill-rule: evenodd;
      }

      .cls-1 {
        stroke: #fff;
        stroke-miterlimit: 2.613;
        stroke-width: 0.216px;
      }
    </style>
  </defs>
  <title>Infomedia</title>
  <g>
    <path class="cls-1" d="M159.86,22.811a2.971,2.971,0,0,0-2.161.891,3.137,3.137,0,0,0-.926,2.2A3.118,3.118,0,0,0,159.86,29a3.143,3.143,0,0,0,2.2-.926,2.983,2.983,0,0,0,.892-2.171,3.071,3.071,0,0,0-3.1-3.095h0Zm2.758,3.1a2.6,2.6,0,0,1-.786,1.92,2.8,2.8,0,0,1-1.972.82,2.774,2.774,0,0,1-2.749-2.749,2.789,2.789,0,0,1,.83-1.963,2.673,2.673,0,0,1,1.919-.8,2.731,2.731,0,0,1,2.758,2.768h0Zm-2.663-1.842h-1.3v3.563h0.536V26.071h0.829l0.752,1.565h0.614l-0.795-1.643a0.911,0.911,0,0,0,.838-0.934c0-.684-0.483-0.986-1.47-0.986h0Zm-0.1.363c0.7,0,1.02.182,1.02,0.656s-0.32.623-1.02,0.623h-0.665V24.436h0.665Z" transform="translate(-8.516 -16.568)"/>
    <path class="cls-2" d="M99.974,35.679v-10l2.8-.281v1.115c0.034-.043,1.961-1.538,3.476-1.406a4.463,4.463,0,0,1,1.718.457,2.928,2.928,0,0,1,1.422,2.4c0.107,2.564,0,5.138,0,7.708h-2.8V29.45c0-.844-0.425-1.961-2.434-1.4a1.731,1.731,0,0,0-1.32.965v6.661H99.974Z" transform="translate(-8.516 -16.568)"/>
    <path class="cls-2" d="M98.687,34.114L96.32,35.938a2.571,2.571,0,0,1-1.334-1.385,3.966,3.966,0,0,1-5.9-.282,5.316,5.316,0,0,1-1.253-3.78,5.5,5.5,0,0,1,1.4-3.871A4.509,4.509,0,0,1,92.218,25.1a4.865,4.865,0,0,1,3.018.941l1.7-.632,0.591,0.219,0.022,6.8a1.741,1.741,0,0,0,1.142,1.685h0Zm-3.925-5.768A2.231,2.231,0,0,0,93,27.491a1.915,1.915,0,0,0-1.666.7,3.6,3.6,0,0,0-.623,2.273,3.1,3.1,0,0,0,.689,2.094,1.975,1.975,0,0,0,1.817.664,1.9,1.9,0,0,0,1.51-.7l0.031-4.17h0Z" transform="translate(-8.516 -16.568)"/>
    <path class="cls-2" d="M118.308,34.39a3.353,3.353,0,0,1-2.3,1.29c-6.171.886-6.543-9.414-1.407-10.209a4.625,4.625,0,0,1,3.537.645V21.344l2.984,0.008V35.7l-2.406-.04-0.4-1.273h0ZM114,30.362a3.171,3.171,0,0,0,.571,2.125,2.188,2.188,0,0,0,1.76.82,2.079,2.079,0,0,0,1.749-.718l-0.009-4.438a2.089,2.089,0,0,0-1.74-.754,2.17,2.17,0,0,0-1.729.87,3.113,3.113,0,0,0-.6,2.095h0Z" transform="translate(-8.516 -16.568)"/>
    <path class="cls-2" d="M133.063,31.12h-7.408a2.709,2.709,0,0,0,.87,1.63,3.18,3.18,0,0,0,1.8.637,9.813,9.813,0,0,0,3.615-.825l0.009,2.4a7.73,7.73,0,0,1-3.938.884,5.553,5.553,0,0,1-3.727-9.3,4.951,4.951,0,0,1,3.747-1.534,4.793,4.793,0,0,1,3.657,1.5,5.32,5.32,0,0,1,1.429,3.848c0,0.092,0,.186-0.01.295s-0.021.261-.042,0.467h0Zm-2.578-1.447A2.9,2.9,0,0,0,129.709,28a2.717,2.717,0,0,0-1.684-.553,2.292,2.292,0,0,0-1.54.457,3.054,3.054,0,0,0-.838,1.764h4.838Z" transform="translate(-8.516 -16.568)"/>
    <path class="cls-2" d="M144.332,31.12h-7.409a2.72,2.72,0,0,0,.871,1.63,3.177,3.177,0,0,0,1.8.637,9.814,9.814,0,0,0,3.616-.825l0.009,2.4a7.732,7.732,0,0,1-3.938.884,5.553,5.553,0,0,1-3.727-9.3,4.955,4.955,0,0,1,3.748-1.534,4.8,4.8,0,0,1,3.658,1.5,5.324,5.324,0,0,1,1.428,3.848c0,0.092,0,.186-0.01.295s-0.022.261-.042,0.467h0Zm-2.579-1.447A2.9,2.9,0,0,0,140.977,28a2.716,2.716,0,0,0-1.683-.553,2.291,2.291,0,0,0-1.541.457,3.049,3.049,0,0,0-.838,1.764h4.837Z" transform="translate(-8.516 -16.568)"/>
    <path class="cls-2" d="M148.581,26.708a3.363,3.363,0,0,1,2.3-1.291c6.17-.886,6.542,9.415,1.407,10.209a4.621,4.621,0,0,1-3.536-.645v3.874l-2.986-.007V25.393l2.407,0.041,0.4,1.273h0Zm4.3,4.028a3.177,3.177,0,0,0-.57-2.126,2.192,2.192,0,0,0-1.761-.82,2.079,2.079,0,0,0-1.748.718l0.009,4.438a2.086,2.086,0,0,0,1.739.754,2.172,2.172,0,0,0,1.729-.87,3.11,3.11,0,0,0,.6-2.094h0Z" transform="translate(-8.516 -16.568)"/>
    <polygon class="cls-2" points="72.047 19.109 67.537 9.863 70.158 8.663 73.245 15.497 76.561 8.646 79.026 9.832 74.269 19.109 72.047 19.109 72.047 19.109"/>
    <path class="cls-2" d="M64.584,31.12H57.175a2.715,2.715,0,0,0,.871,1.63,3.177,3.177,0,0,0,1.8.637,9.813,9.813,0,0,0,3.615-.825l0.009,2.4a7.736,7.736,0,0,1-3.938.884,5.553,5.553,0,0,1-3.727-9.3,4.953,4.953,0,0,1,3.748-1.534,4.794,4.794,0,0,1,3.657,1.5,5.32,5.32,0,0,1,1.429,3.848c0,0.092,0,.186-0.011.295s-0.021.261-.041,0.467h0ZM62,29.672A2.907,2.907,0,0,0,61.229,28a2.718,2.718,0,0,0-1.683-.553,2.291,2.291,0,0,0-1.541.457,3.048,3.048,0,0,0-.838,1.764H62Z" transform="translate(-8.516 -16.568)"/>
    <path class="cls-2" d="M75.852,31.12H68.443a2.709,2.709,0,0,0,.871,1.63,3.176,3.176,0,0,0,1.8.637,9.8,9.8,0,0,0,3.615-.825l0.01,2.4a7.729,7.729,0,0,1-3.938.884A5.4,5.4,0,0,1,67,34.383a5.46,5.46,0,0,1-1.4-3.93,5.432,5.432,0,0,1,1.462-3.908,4.953,4.953,0,0,1,3.748-1.534,4.8,4.8,0,0,1,3.657,1.5A5.32,5.32,0,0,1,75.9,30.358c0,0.092,0,.186-0.01.295s-0.021.261-.042,0.467h0Zm-2.579-1.447A2.9,2.9,0,0,0,72.5,28a2.717,2.717,0,0,0-1.684-.553,2.293,2.293,0,0,0-1.541.457,3.054,3.054,0,0,0-.837,1.764h4.837Z" transform="translate(-8.516 -16.568)"/>
    <path class="cls-2" d="M52.482,18.285V30.215a20.165,20.165,0,0,1-.16,3,4.169,4.169,0,0,1-.532,1.622c-1.042,1.566-4.622,1.317-5.9.756l0.016-2.9L47.281,32.7c1.281,0.014,1.314-.979,1.314-2.127V18.285h3.887Z" transform="translate(-8.516 -16.568)"/>
    <path class="cls-2" d="M52.482,18.285V30.215a20.165,20.165,0,0,1-.16,3,4.169,4.169,0,0,1-.532,1.622c-1.042,1.566-4.622,1.317-5.9.756l0.016-2.9L47.281,32.7c1.281,0.014,1.314-.979,1.314-2.127V18.285h3.887Z" transform="translate(-8.516 -16.568)"/>
    <polygon class="cls-2" points="72.047 19.109 67.537 9.863 70.158 8.663 73.245 15.497 76.561 8.646 79.026 9.832 74.269 19.109 72.047 19.109 72.047 19.109"/>
    <path class="cls-2" d="M21.782,17.9a4.245,4.245,0,0,1,6.036-.135,4.413,4.413,0,0,1-.6,6.105A4.244,4.244,0,0,1,21.179,24a4.413,4.413,0,0,1,.6-6.106h0Z" transform="translate(-8.516 -16.568)"/>
    <path class="cls-2" d="M29.054,41.27a4.245,4.245,0,0,1,6.036-.135,4.413,4.413,0,0,1-.6,6.105,4.247,4.247,0,0,1-6.037.135,4.414,4.414,0,0,1,.6-6.105h0Z" transform="translate(-8.516 -16.568)"/>
    <polygon class="cls-2" points="22.507 0.941 33.582 1.736 27.391 22.761 19.945 22.437 22.507 0.941 22.507 0.941"/>
    <path class="cls-2" d="M19.479,25.872L28.5,25.883l-1.12,14.2c-0.147,5.23-2.785,7.962-7.846,8.488C15.114,49,9.6,47.294,8.516,40.958l6.861-.007c0.224,4.132,5,4.031,4.851.487L19.479,25.872h0Z" transform="translate(-8.516 -16.568)"/>
    <path class="cls-2" d="M21.782,17.9a4.245,4.245,0,0,1,6.036-.135,4.413,4.413,0,0,1-.6,6.105A4.244,4.244,0,0,1,21.179,24a4.413,4.413,0,0,1,.6-6.106h0Z" transform="translate(-8.516 -16.568)"/>
    <path class="cls-2" d="M29.054,41.27a4.245,4.245,0,0,1,6.036-.135,4.413,4.413,0,0,1-.6,6.105,4.247,4.247,0,0,1-6.037.135,4.414,4.414,0,0,1,.6-6.105h0Z" transform="translate(-8.516 -16.568)"/>
    <polygon class="cls-2" points="22.507 0.941 33.582 1.736 27.391 22.761 19.945 22.437 22.507 0.941 22.507 0.941"/>
    <path class="cls-2" d="M19.479,25.872L28.5,25.883l-1.12,14.2c-0.147,5.23-2.785,7.962-7.846,8.488C15.114,49,9.6,47.294,8.516,40.958l6.861-.007c0.224,4.132,5,4.031,4.851.487L19.479,25.872h0Z" transform="translate(-8.516 -16.568)"/>
    <path class="cls-2" d="M64.584,31.12H57.175a2.715,2.715,0,0,0,.871,1.63,3.177,3.177,0,0,0,1.8.637,9.813,9.813,0,0,0,3.615-.825l0.009,2.4a7.736,7.736,0,0,1-3.938.884,5.553,5.553,0,0,1-3.727-9.3,4.953,4.953,0,0,1,3.748-1.534,4.794,4.794,0,0,1,3.657,1.5,5.32,5.32,0,0,1,1.429,3.848c0,0.092,0,.186-0.011.295s-0.021.261-.041,0.467h0ZM62,29.672A2.907,2.907,0,0,0,61.229,28a2.718,2.718,0,0,0-1.683-.553,2.291,2.291,0,0,0-1.541.457,3.048,3.048,0,0,0-.838,1.764H62Z" transform="translate(-8.516 -16.568)"/>
    <path class="cls-2" d="M75.852,31.12H68.443a2.709,2.709,0,0,0,.871,1.63,3.176,3.176,0,0,0,1.8.637,9.8,9.8,0,0,0,3.615-.825l0.01,2.4a7.729,7.729,0,0,1-3.938.884A5.4,5.4,0,0,1,67,34.383a5.46,5.46,0,0,1-1.4-3.93,5.432,5.432,0,0,1,1.462-3.908,4.953,4.953,0,0,1,3.748-1.534,4.8,4.8,0,0,1,3.657,1.5A5.32,5.32,0,0,1,75.9,30.358c0,0.092,0,.186-0.01.295s-0.021.261-.042,0.467h0Zm-2.579-1.447A2.9,2.9,0,0,0,72.5,28a2.717,2.717,0,0,0-1.684-.553,2.293,2.293,0,0,0-1.541.457,3.054,3.054,0,0,0-.837,1.764h4.837Z" transform="translate(-8.516 -16.568)"/>
    <polygon class="cls-2" points="93.71 31.332 93.71 24.49 95.25 24.498 95.25 31.323 93.71 31.332 93.71 31.332"/>
    <polygon class="cls-2" points="116.767 31.354 114.59 26.922 115.828 26.291 117.296 29.585 118.84 26.291 120.036 26.868 117.728 31.354 116.767 31.354 116.767 31.354"/>
    <path class="cls-2" d="M143.171,45.993V44h-0.519l0-.912h0.522v-1.6l1.426,0v1.6h0.714V44H144.6V45.85a1.218,1.218,0,0,0,.781,1.126l-1.037.935a1.927,1.927,0,0,1-1.17-1.918h0Z" transform="translate(-8.516 -16.568)"/>
    <path class="cls-2" d="M129.387,45.993V44h-0.52l0-.912h0.522v-1.6l1.426,0v1.6h0.714V44h-0.714V45.85a1.218,1.218,0,0,0,.78,1.126l-1.037.935a1.926,1.926,0,0,1-1.169-1.918h0Z" transform="translate(-8.516 -16.568)"/>
    <polygon class="cls-2" points="145.356 31.33 143.929 31.33 143.935 29.776 145.351 29.773 145.356 31.33 145.356 31.33"/>
    <polygon class="cls-2" points="125.651 31.33 124.223 31.33 124.229 29.776 125.645 29.773 125.651 31.33 125.651 31.33"/>
    <polygon class="cls-2" points="129.341 24.462 130.858 24.464 130.858 30.067 133.471 30.067 133.453 31.323 129.341 31.323 129.341 24.462 129.341 24.462"/>
    <path class="cls-2" d="M93.581,41.035h1.49a3.775,3.775,0,0,1,2.766.769,3.593,3.593,0,0,1,.954,2.658,4.06,4.06,0,0,1-.734,2.467,3.7,3.7,0,0,1-2.985.963h-1.49V41.035h0Zm1.527,5.636h0.341c1.817,0,1.784-1.2,1.8-2.222,0.017-.824-0.053-2.165-1.8-2.165H95.108v4.387h0Z" transform="translate(-8.516 -16.568)"/>
    <path class="cls-2" d="M106.751,47.9l2.918-6.844h0.511l2.979,6.844-1.672,0-0.5-1.185-2.29.043-0.482,1.12-1.467.026h0Zm2.179-1.872h1.747l-0.862-2.309-0.885,2.31h0Z" transform="translate(-8.516 -16.568)"/>
    <path class="cls-2" d="M117.942,47.887V41.041h2.145c1.806,0,2.614.7,2.595,2.154-0.022,1.638-1.539,1.847-2.595,1.847h-0.595v2.85l-1.551,0h0Zm1.551-5.635v2.011h0.382a1.7,1.7,0,0,0,1.033-.281,0.959,0.959,0,0,0,.3-0.787,0.71,0.71,0,0,0-.309-0.655,1.668,1.668,0,0,0-1.027-.287h-0.382Z" transform="translate(-8.516 -16.568)"/>
    <path class="cls-2" d="M149.464,47.295a1.613,1.613,0,0,1-1.1.618c-2.959.426-3.137-4.513-.676-4.895a2.223,2.223,0,0,1,1.7.31V41.04l1.432,0v6.882l-1.154-.02-0.193-.61h0ZM147.4,45.363a1.52,1.52,0,0,0,.274,1.019,1.05,1.05,0,0,0,.845.394,1,1,0,0,0,.838-0.344l0-2.128a1,1,0,0,0-.834-0.361,1.038,1.038,0,0,0-.829.417,1.489,1.489,0,0,0-.289,1h0Z" transform="translate(-8.516 -16.568)"/>
    <polygon class="cls-2" points="42.82 31.322 42.82 24.467 43.533 24.499 46.562 28.324 46.562 24.456 48.057 24.476 48.057 31.339 47.37 31.277 44.292 27.436 44.292 31.323 42.82 31.322 42.82 31.322"/>
    <polygon class="cls-2" points="51.594 31.322 51.594 24.456 55.17 24.456 55.156 25.695 53.121 25.695 53.121 27.445 55.237 27.445 55.237 28.25 53.121 28.25 53.121 31.323 51.594 31.322 51.594 31.322"/>
    <polygon class="cls-2" points="66.918 31.323 68.484 24.49 69.029 24.49 70.807 28.523 72.59 24.49 73.207 24.485 74.717 31.323 73.229 31.325 72.481 27.453 71.109 30.686 70.381 30.696 69.127 27.703 68.424 31.325 66.918 31.323 66.918 31.323"/>
    <polygon class="cls-2" points="77.782 31.323 77.782 24.49 81.722 24.49 81.719 25.688 79.311 25.688 79.311 27.432 81.83 27.432 81.83 28.26 79.311 28.26 79.311 30.061 81.929 30.061 81.919 31.323 77.782 31.323 77.782 31.323"/>
    <polygon class="cls-2" points="37.555 31.311 37.555 24.469 39.094 24.478 39.094 31.303 37.555 31.311 37.555 31.311"/>
    <path class="cls-2" d="M66.572,44.5a3.99,3.99,0,0,1,.226-1.355,3.468,3.468,0,0,1,.665-1.135,2.945,2.945,0,0,1,.987-0.744,2.788,2.788,0,0,1,1.184-.254,2.84,2.84,0,0,1,1.19.255,3.026,3.026,0,0,1,.992.743,3.47,3.47,0,0,1,.659,1.13,4.283,4.283,0,0,1,0,2.726,3.457,3.457,0,0,1-.659,1.129,3.042,3.042,0,0,1-.992.744,2.838,2.838,0,0,1-1.19.254,2.8,2.8,0,0,1-1.184-.254,3.053,3.053,0,0,1-.987-0.744,3.457,3.457,0,0,1-.665-1.135,4,4,0,0,1-.226-1.36h0Zm3.062,2.2c1.993,0.1,1.976-4.45,0-4.445-1.937,0-2.117,4.338,0,4.445h0Z" transform="translate(-8.516 -16.568)"/>
    <polygon class="cls-2" points="42.82 31.322 42.82 24.467 43.533 24.499 46.562 28.324 46.562 24.456 48.057 24.476 48.057 31.339 47.37 31.277 44.292 27.436 44.292 31.323 42.82 31.322 42.82 31.322"/>
    <polygon class="cls-2" points="51.594 31.322 51.594 24.456 55.17 24.456 55.156 25.695 53.121 25.695 53.121 27.445 55.237 27.445 55.237 28.25 53.121 28.25 53.121 31.323 51.594 31.322 51.594 31.322"/>
    <polygon class="cls-2" points="66.918 31.323 68.484 24.49 69.029 24.49 70.807 28.523 72.59 24.49 73.207 24.485 74.717 31.323 73.229 31.325 72.481 27.453 71.109 30.686 70.381 30.696 69.127 27.703 68.424 31.325 66.918 31.323 66.918 31.323"/>
    <polygon class="cls-2" points="77.782 31.323 77.782 24.49 81.722 24.49 81.719 25.688 79.311 25.688 79.311 27.432 81.83 27.432 81.83 28.26 79.311 28.26 79.311 30.061 81.929 30.061 81.919 31.323 77.782 31.323 77.782 31.323"/>
    <polygon class="cls-2" points="37.555 31.311 37.555 24.469 39.094 24.478 39.094 31.303 37.555 31.311 37.555 31.311"/>
    <path class="cls-2" d="M66.572,44.5a3.99,3.99,0,0,1,.226-1.355,3.468,3.468,0,0,1,.665-1.135,2.945,2.945,0,0,1,.987-0.744,2.788,2.788,0,0,1,1.184-.254,2.84,2.84,0,0,1,1.19.255,3.026,3.026,0,0,1,.992.743,3.47,3.47,0,0,1,.659,1.13,4.283,4.283,0,0,1,0,2.726,3.457,3.457,0,0,1-.659,1.129,3.042,3.042,0,0,1-.992.744,2.838,2.838,0,0,1-1.19.254,2.8,2.8,0,0,1-1.184-.254,3.053,3.053,0,0,1-.987-0.744,3.457,3.457,0,0,1-.665-1.135,4,4,0,0,1-.226-1.36h0Zm3.062,2.2c1.993,0.1,1.976-4.45,0-4.445-1.937,0-2.117,4.338,0,4.445h0Z" transform="translate(-8.516 -16.568)"/>
  </g>
</svg>
