<svg id="Layer_1" data-name="Layer 1" xmlns="http://www.w3.org/2000/svg" viewBox="0 0 109.245 90.754">
  <defs>
    <style>
      .cls-1, .cls-3, .cls-5 {
        fill: #fff;
      }

      .cls-2, .cls-6 {
        fill: #e3001b;
      }

      .cls-3, .cls-4, .cls-6 {
        fill-rule: evenodd;
      }

      .cls-4 {
        fill: #1d275b;
      }

      .cls-5 {
        stroke: #fff;
        stroke-miterlimit: 2.613;
        stroke-width: 0.216px;
      }
    </style>
  </defs>
  <title>Periwinkle Logo</title>
  <rect class="cls-1" x="20.275" y="1.151" width="66.938" height="66.939"/>
  <rect class="cls-2" x="21.368" y="2.244" width="64.752" height="64.752"/>
  <path class="cls-1" d="M112.41,89.976H119a3.984,3.984,0,0,0-.755-2.231,3.07,3.07,0,0,0-2.479-1.158,3.182,3.182,0,0,0-2.319.923,3.655,3.655,0,0,0-1.04,2.467m6.57,3.237,2.068,0.255a5.056,5.056,0,0,1-1.81,2.816,5.48,5.48,0,0,1-3.382,1,5.4,5.4,0,0,1-4.106-1.594,6.225,6.225,0,0,1-1.519-4.476,6.538,6.538,0,0,1,1.533-4.627,5.2,5.2,0,0,1,3.981-1.646,5.047,5.047,0,0,1,3.868,1.612,6.4,6.4,0,0,1,1.5,4.536c0,0.121,0,.3-0.012.535H112.3a4.517,4.517,0,0,0,1.1,2.98,3.271,3.271,0,0,0,2.468,1.036,3.061,3.061,0,0,0,1.879-.58A3.815,3.815,0,0,0,118.98,93.213Zm-14.194,3.8v-16.3h2v16.3h-2Zm-12.342,0v-16.3h2v9.3l4.736-4.8h2.589l-4.513,4.38,4.972,7.429H99.762l-3.9-6.039-1.412,1.358v4.681h-2Zm-13.683,0V85.208h1.8v1.678a4.247,4.247,0,0,1,3.758-1.946,4.952,4.952,0,0,1,1.962.383,3.066,3.066,0,0,1,1.34,1.01,3.862,3.862,0,0,1,.627,1.477,11.855,11.855,0,0,1,.109,1.947v7.261h-2V89.831A5.437,5.437,0,0,0,86.122,88a1.93,1.93,0,0,0-.828-0.965,2.629,2.629,0,0,0-1.4-.363,3.26,3.26,0,0,0-2.209.813,4.005,4.005,0,0,0-.926,3.082v6.448h-2Zm-6.06,0V85.208h2V97.017h-2Zm0-14v-2.3h2v2.3h-2Zm-15.284,14L53.8,85.208h2.068l1.879,6.817,0.7,2.535c0.03-.129.236-0.941,0.611-2.437l1.879-6.916H63l1.769,6.848,0.592,2.259,0.676-2.281,2.023-6.825H70L66.311,97.017H64.235l-1.878-7.071L61.9,87.93l-2.388,9.087H57.418Zm-8.239,0V85.208h2V97.017h-2Zm0-14v-2.3h2v2.3h-2Zm-8.623,14V85.208h1.8V87a4.858,4.858,0,0,1,1.275-1.654,2.218,2.218,0,0,1,1.283-.4,3.915,3.915,0,0,1,2.057.645l-0.69,1.859a2.829,2.829,0,0,0-1.465-.436,1.914,1.914,0,0,0-1.18.394,2.143,2.143,0,0,0-.744,1.1,7.726,7.726,0,0,0-.334,2.335v6.183h-2ZM28.416,89.976h6.593a3.98,3.98,0,0,0-.755-2.231,3.068,3.068,0,0,0-2.478-1.158,3.181,3.181,0,0,0-2.319.923A3.658,3.658,0,0,0,28.416,89.976Zm6.57,3.237,2.069,0.255a5.056,5.056,0,0,1-1.811,2.816,5.479,5.479,0,0,1-3.382,1,5.4,5.4,0,0,1-4.107-1.594,6.227,6.227,0,0,1-1.518-4.476,6.535,6.535,0,0,1,1.533-4.627,5.2,5.2,0,0,1,3.982-1.646,5.047,5.047,0,0,1,3.868,1.612,6.4,6.4,0,0,1,1.5,4.536c0,0.121,0,.3-0.011.535H28.306a4.515,4.515,0,0,0,1.1,2.98,3.27,3.27,0,0,0,2.467,1.036,3.059,3.059,0,0,0,1.878-.58A3.808,3.808,0,0,0,34.986,93.213ZM14.028,88.465h4.217a4.463,4.463,0,0,0,2.968-.777,2.78,2.78,0,0,0,.877-2.19,2.947,2.947,0,0,0-.516-1.754,2.409,2.409,0,0,0-1.363-.96,9.249,9.249,0,0,0-2.011-.144H14.028v5.826Zm-2.156,8.552v-16.3h6.149a15.108,15.108,0,0,1,2.478.154,4.905,4.905,0,0,1,2.016.764A4.01,4.01,0,0,1,23.821,83.2a5.323,5.323,0,0,1-.828,5.747q-1.326,1.434-4.782,1.438H14.028v6.627H11.872Z" transform="translate(-11.872 -6.528)"/>
  <path class="cls-3" d="M60.709,41.958c-3.821-2.164-7.287-2.68-11.471-3.93-3.518-1.568-4.938-3.311-3.292-5.311a36.305,36.305,0,0,1,4.673-10.2,3.463,3.463,0,0,1,2.867-1.65q0.628,0.15,1.221.336l0.021,0.01L54.8,21.237c7.209,2.312,10.707,8.693,12.115,17.358l0.164-.363,0,0.009,0.009-.034a68.851,68.851,0,0,0,3.021-8.479l0.057-.174c0.1-.259.2-0.529,0.285-0.8,1.914-4.958,5.8-7.353,10.93-6.545a8.281,8.281,0,0,1,2.534,1.741c1.357,0.323,2.463.881,1.8,3.08s-1.6,3.924-1.539,6.118a5.993,5.993,0,0,1-3.4,5.417,47.737,47.737,0,0,1-9.24,4.886,32.562,32.562,0,0,0,3.824-.318,20.582,20.582,0,0,0,7.01-2.55c3.169-1.538,5.756-1.559,7.491.638,1.084,4.426.823,8.851,1.961,13.276-0.052,1.306-.876,2.249-3.08,2.549a28.694,28.694,0,0,0-7.01.425A5.552,5.552,0,0,1,76.747,56.3l-7.223-6.691,1.912,3.93A22.916,22.916,0,0,0,76,58.1c2.231,2.609,2.947,4.809,1.449,6.411A61.4,61.4,0,0,1,65.32,72.049a1.265,1.265,0,0,1-1.549-.58,36.938,36.938,0,0,1-4.443-9.648c-0.891-3.979,1.719-9.346,3.292-12.853-3.514,2.681-5.982,7.251-7.753,11.152-2.021,2.2-4.1,2.644-6.266.531A65.767,65.767,0,0,0,40.529,52.9c-0.843-.914-1.147-1.872-0.269-2.928a45.183,45.183,0,0,0,5.947-5.834,5.244,5.244,0,0,1,4.837-2.391,36.356,36.356,0,0,1,9.665.212" transform="translate(-11.872 -6.528)"/>
  <path class="cls-4" d="M81.114,21.3c-6.09-3.652-12.18.721-13.739,7.356-1.471-7.867-7.831-9.242-13.236-8.49,6.938,1.5,11.637,7.2,12.965,16.2,1.726-3.976,1.939-8.224,4.538-11.589A9.48,9.48,0,0,1,81.114,21.3Z" transform="translate(-11.872 -6.528)"/>
  <path class="cls-5" d="M81.114,21.3c-6.09-3.652-12.18.721-13.739,7.356-1.471-7.867-7.831-9.242-13.236-8.49,6.938,1.5,11.637,7.2,12.965,16.2,1.726-3.976,1.939-8.224,4.538-11.589A9.48,9.48,0,0,1,81.114,21.3Z" transform="translate(-11.872 -6.528)"/>
  <path class="cls-3" d="M67.468,11.19c1.923,0.147,3.455,2.3,3.412,4.785s-1.647,4.4-3.57,4.251-3.455-2.3-3.412-4.785,1.647-4.4,3.57-4.252" transform="translate(-11.872 -6.528)"/>
  <path class="cls-6" d="M63.977,41.046a10.133,10.133,0,0,1-2.055,4.108,8.026,8.026,0,0,1,3.3,3.306,8.488,8.488,0,0,1,3.663-2.144,8.343,8.343,0,0,1-.357-4.377,8.9,8.9,0,0,1-4.556-.893" transform="translate(-11.872 -6.528)"/>
  <path class="cls-6" d="M69,40.352c4.155-4.8,8.018-7.821,8.66-14.254,0.842-.782,1.735-0.112,2.911.156,1.037,0.236,2.391-.031,2.755.852C81.051,32.856,74.926,38.694,69,40.352" transform="translate(-11.872 -6.528)"/>
  <path class="cls-6" d="M75.787,47.215L71.007,45.9c6.02,0.834,12.464-3.688,15.068-3.1,2.5,0.1,3.84,9.265,1.683,6.388L86.1,46.976c-1.943-1.239-6.357.779-10.316,0.239" transform="translate(-11.872 -6.528)"/>
  <path class="cls-6" d="M67.638,50.484a32.645,32.645,0,0,1,2.132,8.2c1.265,2.179.448,4.445-1.935,6.778a11.815,11.815,0,0,0-2.681,5.083,46.06,46.06,0,0,1,8.935-6.47c1.42-1.436.226-4.129-2.156-7.395L68.08,50.057Z" transform="translate(-11.872 -6.528)"/>
  <path class="cls-6" d="M60.384,45.4c-5.728.027-11.119,2.229-16.179,5.312-0.162-.265-0.682-0.244-0.485-0.8a21.071,21.071,0,0,1,3.724-4.966,11.992,11.992,0,0,1,7.7-1.231l5.391,0.924c0.869,0.487.508,0.373-.154,0.758" transform="translate(-11.872 -6.528)"/>
  <path class="cls-6" d="M51.752,25.41l0.154,0.154c4.552,3.24,6.991,10.282,11.707,15.1-2.219-6.958-2.963-13.088-9.7-17.1a2.788,2.788,0,0,0-2.157,1.849" transform="translate(-11.872 -6.528)"/>
  <path class="cls-1" d="M103.023,8.386h0.413a0.667,0.667,0,0,0,.4-0.089,0.3,0.3,0,0,0,.056-0.4,0.314,0.314,0,0,0-.144-0.11,1.062,1.062,0,0,0-.343-0.036h-0.387V8.386Zm-0.341,1.187V7.464h0.725a1.768,1.768,0,0,1,.538.058,0.525,0.525,0,0,1,.266.2,0.546,0.546,0,0,1,.1.31,0.561,0.561,0,0,1-.165.4,0.655,0.655,0,0,1-.438.192,0.558,0.558,0,0,1,.18.112,2.431,2.431,0,0,1,.313.418l0.257,0.413h-0.416l-0.187-.332A1.678,1.678,0,0,0,103.5,8.75a0.437,0.437,0,0,0-.273-0.073h-0.2v0.9h-0.341Zm0.86-2.721a1.671,1.671,0,0,0-.8.212,1.513,1.513,0,0,0-.611.605,1.625,1.625,0,0,0,0,1.632,1.541,1.541,0,0,0,.606.606,1.631,1.631,0,0,0,1.627,0,1.538,1.538,0,0,0,.606-0.606,1.644,1.644,0,0,0,0-1.632,1.51,1.51,0,0,0-.612-0.605A1.672,1.672,0,0,0,103.543,6.853Zm0-.325a2.019,2.019,0,0,1,.965.253,1.806,1.806,0,0,1,.732.726,1.965,1.965,0,0,1,0,1.958,1.814,1.814,0,0,1-.725.726,1.965,1.965,0,0,1-1.951,0,1.819,1.819,0,0,1-.727-0.726,1.962,1.962,0,0,1,0-1.958,1.8,1.8,0,0,1,.734-0.726A2.011,2.011,0,0,1,103.543,6.528Z" transform="translate(-11.872 -6.528)"/>
</svg>
