<svg id="Layer_1" data-name="Layer 1" xmlns="http://www.w3.org/2000/svg" viewBox="0 0 36.153 25.166">
  <defs>
    <style>
      .cls-1 {
        fill: #fff;
      }
    </style>
  </defs>
  <title>stationery</title>
  <path class="cls-1" d="M38.069,23.9L36.937,25l-6.8-6.6,1.133-1.1a3.273,3.273,0,0,1,4.533,0l2.264,2.2a3.049,3.049,0,0,1,0,4.4h0ZM22.209,37.1a0.761,0.761,0,0,0,0,1.1,0.812,0.812,0,0,0,1.132,0L35.806,26.1,34.67,25Zm-5.666-5.5a0.763,0.763,0,0,0,0,1.1,0.819,0.819,0,0,0,1.134,0L30.14,20.6l-1.133-1.1ZM31.27,21.7L18.81,33.8a1.525,1.525,0,0,0,0,2.2,1.63,1.63,0,0,0,2.267,0L33.537,23.9Zm-10.2,17.6a2.254,2.254,0,0,1-.636-1.331,3.405,3.405,0,0,1-.5.047,3.236,3.236,0,0,1-2.265-.913,2.881,2.881,0,0,1-.894-2.647,2.412,2.412,0,0,1-1.372-.654c-0.035-.036-0.049-0.081-0.082-0.12l-1.954,7.6,7.8-1.9c-0.035-.031-0.074-0.054-0.107-0.085h0Zm0,0" transform="translate(-2.854 -16.383)"/>
  <polygon class="cls-1" points="26.792 25.166 0 25.166 0.428 24.629 26.792 24.629 26.792 25.166"/>
</svg>
